<?xml version="1.0" encoding="UTF-8"?>
<svg version="1.1" xmlns="http://www.w3.org/2000/svg" width="500" height="500">
<path d="M0 0 C25.77736337 -0.76107748 49.10941538 7.4768492 71.16796875 20.16015625 C71.92029785 20.5871582 72.67262695 21.01416016 73.44775391 21.45410156 C75.59186026 22.6759664 77.72618701 23.9126621 79.85546875 25.16015625 C80.49790527 25.53382324 81.1403418 25.90749023 81.80224609 26.29248047 C83.29383819 27.19059429 84.73729112 28.16787759 86.16796875 29.16015625 C86.16796875 29.82015625 86.16796875 30.48015625 86.16796875 31.16015625 C87.27205078 31.56621094 87.27205078 31.56621094 88.3984375 31.98046875 C97.42894849 35.82703337 105.35173737 43.24388799 113.16015625 49.14453125 C115.71281141 51.07222177 118.27815595 52.97937294 120.86328125 54.86328125 C121.42418457 55.27465332 121.98508789 55.68602539 122.56298828 56.10986328 C124.07425291 57.21653014 125.58972627 58.31744296 127.10546875 59.41796875 C127.78609375 59.99289062 128.46671875 60.5678125 129.16796875 61.16015625 C129.16796875 61.82015625 129.16796875 62.48015625 129.16796875 63.16015625 C129.84214844 63.37671875 130.51632813 63.59328125 131.2109375 63.81640625 C135.09504423 65.58144286 138.15796344 68.01173286 141.48046875 70.66015625 C142.12564453 71.15902344 142.77082031 71.65789062 143.43554688 72.171875 C145.05477182 73.4501203 146.61686487 74.80005434 148.16796875 76.16015625 C148.16796875 76.82015625 148.16796875 77.48015625 148.16796875 78.16015625 C148.69777344 78.38058594 149.22757813 78.60101563 149.7734375 78.828125 C153.0248915 80.63684574 155.6922949 83.03687603 158.48046875 85.47265625 C162.04917412 88.55492471 165.57587158 91.56624998 169.48046875 94.22265625 C170.36734375 94.86203125 171.25421875 95.50140625 172.16796875 96.16015625 C172.16796875 96.82015625 172.16796875 97.48015625 172.16796875 98.16015625 C173.00328125 98.53140625 173.00328125 98.53140625 173.85546875 98.91015625 C176.59207788 100.38940443 178.84447744 102.09483064 181.16796875 104.16015625 C181.16796875 104.82015625 181.16796875 105.48015625 181.16796875 106.16015625 C181.709375 106.39734375 182.25078125 106.63453125 182.80859375 106.87890625 C185.80047012 108.50363382 188.27956274 110.51034395 190.91796875 112.66015625 C191.9028125 113.45421875 192.88765625 114.24828125 193.90234375 115.06640625 C194.65 115.75734375 195.39765625 116.44828125 196.16796875 117.16015625 C196.16796875 117.82015625 196.16796875 118.48015625 196.16796875 119.16015625 C196.78671875 119.46953125 197.40546875 119.77890625 198.04296875 120.09765625 C199.41796875 120.78515625 200.79296875 121.47265625 202.16796875 122.16015625 C202.16796875 122.82015625 202.16796875 123.48015625 202.16796875 124.16015625 C202.82796875 124.16015625 203.48796875 124.16015625 204.16796875 124.16015625 C204.16796875 124.82015625 204.16796875 125.48015625 204.16796875 126.16015625 C204.70164062 126.38574219 205.2353125 126.61132812 205.78515625 126.84375 C208.94636015 128.5901856 211.56784534 130.8787849 214.29296875 133.22265625 C217.99904143 136.52426172 217.99904143 136.52426172 222.16796875 139.16015625 C222.16796875 139.82015625 222.16796875 140.48015625 222.16796875 141.16015625 C222.93109375 141.44890625 223.69421875 141.73765625 224.48046875 142.03515625 C227.16796875 143.16015625 227.16796875 143.16015625 230.16796875 145.16015625 C230.16796875 145.82015625 230.16796875 146.48015625 230.16796875 147.16015625 C230.87179687 147.4128125 231.575625 147.66546875 232.30078125 147.92578125 C235.47812125 149.29368239 238.15169651 151.01206913 241.04296875 152.91015625 C256.81124531 162.91501347 274.41619501 167.78800258 293.02734375 164.47265625 C304.27851583 161.5247509 317.52061257 155.13119052 324.16796875 145.16015625 C324.82796875 145.16015625 325.48796875 145.16015625 326.16796875 145.16015625 C326.16796875 144.50015625 326.16796875 143.84015625 326.16796875 143.16015625 C326.82796875 143.16015625 327.48796875 143.16015625 328.16796875 143.16015625 C328.41546875 142.33515625 328.66296875 141.51015625 328.91796875 140.66015625 C329.874487 137.98190514 330.8755728 135.66779017 332.16796875 133.16015625 C338.20556733 121.21962672 338.29585497 108.72637637 334.1640625 96.08984375 C331.43344195 89.04249963 327.79314723 83.11274021 323.16796875 77.16015625 C322.46027344 76.20496094 322.46027344 76.20496094 321.73828125 75.23046875 C313.32139229 64.53103363 298.4299503 56.48635964 285.0546875 54.7578125 C256.7901486 52.00858413 229.05014773 67.97423442 207.62109375 85.1640625 C206.16796875 86.16015625 206.16796875 86.16015625 204.16796875 86.16015625 C204.16796875 86.82015625 204.16796875 87.48015625 204.16796875 88.16015625 C202.51025954 89.49635246 200.78944859 90.75477764 199.04296875 91.97265625 C195.78452381 94.26486142 192.66227596 96.52569665 189.73046875 99.22265625 C187.16796875 101.16015625 187.16796875 101.16015625 185.16796875 101.28515625 C182.11708131 99.56903207 179.736038 97.55312987 177.16796875 95.16015625 C177.16796875 94.50015625 177.16796875 93.84015625 177.16796875 93.16015625 C176.60335938 92.91394531 176.03875 92.66773438 175.45703125 92.4140625 C172.77717603 90.9460872 170.78838072 89.16658935 168.54296875 87.09765625 C165.58007708 84.30235167 165.58007708 84.30235167 162.16796875 82.16015625 C162.16796875 81.50015625 162.16796875 80.84015625 162.16796875 80.16015625 C161.636875 79.93585938 161.10578125 79.7115625 160.55859375 79.48046875 C157.35688015 77.71220209 154.68649771 75.39966544 151.91796875 73.03515625 C151.36367188 72.56722656 150.809375 72.09929687 150.23828125 71.6171875 C148.87849549 70.46840297 147.5228171 69.31475972 146.16796875 68.16015625 C149.01590316 64.36291037 152.04664722 61.39730949 155.73046875 58.41015625 C156.68050781 57.6315625 157.63054687 56.85296875 158.609375 56.05078125 C161.16796875 54.16015625 161.16796875 54.16015625 164.16796875 53.16015625 C164.16796875 52.50015625 164.16796875 51.84015625 164.16796875 51.16015625 C165.48796875 50.83015625 166.80796875 50.50015625 168.16796875 50.16015625 C168.16796875 49.50015625 168.16796875 48.84015625 168.16796875 48.16015625 C169.46557617 46.95507812 169.46557617 46.95507812 171.2734375 45.62890625 C171.92763672 45.14808594 172.58183594 44.66726563 173.25585938 44.171875 C173.94873047 43.67300781 174.64160156 43.17414063 175.35546875 42.66015625 C176.02900391 42.16128906 176.70253906 41.66242188 177.39648438 41.1484375 C180.86566603 38.62355017 184.04503517 36.50511322 188.16796875 35.16015625 C188.16796875 34.50015625 188.16796875 33.84015625 188.16796875 33.16015625 C190.05514134 31.85503689 192.00648749 30.64233781 193.98046875 29.47265625 C195.18947725 28.75243425 196.39780131 28.03106218 197.60546875 27.30859375 C198.21132813 26.94733398 198.8171875 26.58607422 199.44140625 26.21386719 C201.83888752 24.75069847 204.15144185 23.16690913 206.48046875 21.59765625 C212.76696051 17.57209574 219.49914891 14.73809215 226.38037109 11.90185547 C227.85548786 11.28980893 229.31996143 10.65217742 230.78125 10.0078125 C236.09114283 7.72428346 241.55120202 6.10262505 247.10546875 4.53515625 C247.8329834 4.32874512 248.56049805 4.12233398 249.31005859 3.90966797 C278.47942696 -4.06800198 309.24605762 -0.83572614 335.85546875 13.59765625 C337.3011671 14.43787244 338.74268001 15.28576563 340.16796875 16.16015625 C340.16796875 16.82015625 340.16796875 17.48015625 340.16796875 18.16015625 C340.73 18.25167969 341.29203125 18.34320313 341.87109375 18.4375 C349.46628917 20.82714482 357.11981011 29.15312949 362.16796875 35.16015625 C362.16796875 35.82015625 362.16796875 36.48015625 362.16796875 37.16015625 C362.82796875 37.16015625 363.48796875 37.16015625 364.16796875 37.16015625 C384.50095814 61.00795608 391.1892481 92.26591154 388.88671875 122.90234375 C386.53625214 142.83610869 378.12392358 166.46967749 364.16796875 181.16015625 C363.50796875 181.16015625 362.84796875 181.16015625 362.16796875 181.16015625 C361.94109375 181.71703125 361.71421875 182.27390625 361.48046875 182.84765625 C359.79761135 185.81269072 357.63175501 187.81369314 355.16796875 190.16015625 C354.08515625 191.30484375 354.08515625 191.30484375 352.98046875 192.47265625 C351.16796875 194.16015625 351.16796875 194.16015625 349.16796875 194.16015625 C349.16796875 194.82015625 349.16796875 195.48015625 349.16796875 196.16015625 C347.17766176 197.71050064 345.19675271 199.13333173 343.10546875 200.53515625 C342.54408203 200.921875 341.98269531 201.30859375 341.40429688 201.70703125 C335.0683448 206.02271975 328.74617172 209.57127396 321.54296875 212.22265625 C320.84856689 212.47942139 320.15416504 212.73618652 319.4387207 213.00073242 C289.15632122 223.91015651 255.90311274 220.73316883 226.96606445 207.57226562 C218.15373319 203.42602641 210.0467398 198.89994307 202.16796875 193.16015625 C200.89240729 192.27477049 199.61494478 191.39211942 198.3359375 190.51171875 C197.02936698 189.60369994 195.72336907 188.69485658 194.41796875 187.78515625 C193.79607666 187.35589844 193.17418457 186.92664063 192.53344727 186.484375 C191.04128324 185.42665987 189.59908053 184.29911799 188.16796875 183.16015625 C188.16796875 182.50015625 188.16796875 181.84015625 188.16796875 181.16015625 C186.51796875 180.50015625 184.86796875 179.84015625 183.16796875 179.16015625 C183.16796875 178.50015625 183.16796875 177.84015625 183.16796875 177.16015625 C182.32298828 176.77923828 182.32298828 176.77923828 181.4609375 176.390625 C178.86180043 174.99585809 176.76165904 173.34242414 174.48046875 171.47265625 C170.3210587 168.07961595 166.09171995 164.80931372 161.78515625 161.60546875 C161.25148438 161.12851562 160.7178125 160.6515625 160.16796875 160.16015625 C160.16796875 159.50015625 160.16796875 158.84015625 160.16796875 158.16015625 C159.64460938 157.94617188 159.12125 157.7321875 158.58203125 157.51171875 C155.18614437 155.61046169 152.45457838 153.1010665 149.54296875 150.53515625 C144.43324845 146.07739816 139.2580125 141.79469119 133.86328125 137.68359375 C133.30382812 137.18085938 132.744375 136.678125 132.16796875 136.16015625 C132.16796875 135.50015625 132.16796875 134.84015625 132.16796875 134.16015625 C131.6059375 133.90234375 131.04390625 133.64453125 130.46484375 133.37890625 C127.90092296 132.01845848 125.7157051 130.43226663 123.41796875 128.66015625 C122.61875 128.05171875 121.81953125 127.44328125 120.99609375 126.81640625 C120.3928125 126.26984375 119.78953125 125.72328125 119.16796875 125.16015625 C119.16796875 124.50015625 119.16796875 123.84015625 119.16796875 123.16015625 C118.63816406 122.93972656 118.10835937 122.71929687 117.5625 122.4921875 C114.311046 120.68346676 111.6436426 118.28343647 108.85546875 115.84765625 C105.28676338 112.76538779 101.76006592 109.75406252 97.85546875 107.09765625 C96.96859375 106.45828125 96.08171875 105.81890625 95.16796875 105.16015625 C95.16796875 104.50015625 95.16796875 103.84015625 95.16796875 103.16015625 C94.4409375 102.9178125 93.71390625 102.67546875 92.96484375 102.42578125 C89.80972164 100.99804443 87.90967829 99.30415169 85.41796875 96.91015625 C81.44239139 93.20319898 77.42612366 90.16986624 72.78515625 87.3515625 C72.25148437 86.95839844 71.7178125 86.56523437 71.16796875 86.16015625 C71.16796875 85.50015625 71.16796875 84.84015625 71.16796875 84.16015625 C70.47445312 83.92425781 69.7809375 83.68835938 69.06640625 83.4453125 C65.62264372 81.91836119 62.78926836 79.84031149 59.79296875 77.59765625 C39.93317144 63.14746009 17.3827789 50.95224143 -8.078125 54.62890625 C-23.9426194 57.76817016 -36.27112197 67.10565184 -45.33203125 80.28515625 C-46.52478473 82.22771119 -47.69457267 84.1847149 -48.83203125 86.16015625 C-49.26257812 86.84980469 -49.693125 87.53945313 -50.13671875 88.25 C-56.55763217 100.08416525 -55.87097911 117.44419011 -52.83203125 130.16015625 C-51.68135798 133.01353918 -50.42806054 135.60150591 -48.85546875 138.2421875 C-47.83203125 140.16015625 -47.83203125 140.16015625 -47.83203125 143.16015625 C-47.17203125 143.16015625 -46.51203125 143.16015625 -45.83203125 143.16015625 C-44.894461 144.59999627 -43.96049078 146.04239723 -43.05078125 147.5 C-41.72843686 149.30127041 -40.3317034 150.52775019 -38.58203125 151.91015625 C-37.22078125 153.02390625 -37.22078125 153.02390625 -35.83203125 154.16015625 C-35.83203125 154.82015625 -35.83203125 155.48015625 -35.83203125 156.16015625 C-34.92453125 156.42828125 -34.01703125 156.69640625 -33.08203125 156.97265625 C-29.83203125 158.16015625 -29.83203125 158.16015625 -28.02734375 159.59765625 C-16.41368282 167.86360709 2.88377672 166.60004186 16.19140625 164.4296875 C24.73526385 162.79289945 32.4425 160.1862532 40.16796875 156.16015625 C41.52713611 155.49300917 42.88794834 154.82920728 44.25 154.16796875 C45.70226849 153.4579419 47.15409231 152.74700478 48.60546875 152.03515625 C49.2927002 151.69838867 49.97993164 151.36162109 50.68798828 151.01464844 C53.43809355 149.64061511 56.00389037 148.28524848 58.453125 146.41796875 C60.16796875 145.16015625 60.16796875 145.16015625 63.16796875 145.16015625 C63.16796875 144.50015625 63.16796875 143.84015625 63.16796875 143.16015625 C65.14796875 142.50015625 67.12796875 141.84015625 69.16796875 141.16015625 C69.16796875 140.50015625 69.16796875 139.84015625 69.16796875 139.16015625 C71.24236523 137.58543192 73.3235722 136.11404368 75.48046875 134.66015625 C81.41086212 130.5664766 86.65966536 126.18940814 91.86328125 121.19140625 C93.92433071 119.37488808 95.65674467 118.22482268 98.16796875 117.16015625 C99.15796875 117.82015625 100.14796875 118.48015625 101.16796875 119.16015625 C101.16796875 119.82015625 101.16796875 120.48015625 101.16796875 121.16015625 C102.00134766 121.51207031 102.00134766 121.51207031 102.8515625 121.87109375 C105.74458447 123.48103852 107.83189067 125.50315118 110.23046875 127.78515625 C116.43440174 133.51884432 123.0545067 138.4141722 130.08203125 143.10546875 C130.99726563 143.72164062 131.9125 144.3378125 132.85546875 144.97265625 C133.68433594 145.51535156 134.51320312 146.05804688 135.3671875 146.6171875 C135.96144531 147.12636719 136.55570313 147.63554687 137.16796875 148.16015625 C137.16796875 149.15015625 137.16796875 150.14015625 137.16796875 151.16015625 C135.39453125 152.9296875 135.39453125 152.9296875 132.79296875 154.97265625 C131.78878906 155.76414062 130.78460938 156.555625 129.75 157.37109375 C129.1823291 157.81163086 128.6146582 158.25216797 128.02978516 158.70605469 C126.00216421 160.28965164 123.99714657 161.89954005 121.9921875 163.51171875 C112.97487036 170.70934465 103.79381183 177.19628743 93.89453125 183.11669922 C91.47312483 184.58008879 89.10348252 186.11984159 86.73046875 187.66015625 C54.75733256 207.97193933 20.06417362 223.95981348 -18.7578125 216.8515625 C-40.03551699 212.06610672 -58.34124043 203.59982234 -73.83203125 188.16015625 C-74.69957031 187.30292969 -75.56710938 186.44570313 -76.4609375 185.5625 C-83.83203125 178.09425839 -83.83203125 178.09425839 -83.83203125 175.16015625 C-84.49203125 175.16015625 -85.15203125 175.16015625 -85.83203125 175.16015625 C-85.83203125 174.17015625 -85.83203125 173.18015625 -85.83203125 172.16015625 C-86.49203125 172.16015625 -87.15203125 172.16015625 -87.83203125 172.16015625 C-103.48465103 144.7777817 -110.24461833 111.59551689 -102.1484375 80.57421875 C-98.12961939 66.66411155 -92.52582461 53.82605081 -83.83203125 42.16015625 C-83.17203125 42.16015625 -82.51203125 42.16015625 -81.83203125 42.16015625 C-81.60386719 41.44859375 -81.37570313 40.73703125 -81.140625 40.00390625 C-74.13275454 24.77486238 -52.90968487 13.19586468 -38.01953125 7.53515625 C-25.528731 3.03081864 -13.2442146 0.74898317 0 0 Z " fill="#F7F7F7" transform="translate(109.83203125,212.83984375)"/>
<path d="M0 0 C1.98 0.495 1.98 0.495 4 1 C4 1.66 4 2.32 4 3 C4.66 3 5.32 3 6 3 C7.21875 4.35546875 7.21875 4.35546875 8.5 6.1875 C8.9228125 6.77917969 9.345625 7.37085938 9.78125 7.98046875 C14.3601075 15.56787044 13.9422261 24.40052798 13 33 C11.05819349 40.53387589 7.09741851 48.08041721 2 54 C1.34 54 0.68 54 0 54 C-0.28875 54.598125 -0.5775 55.19625 -0.875 55.8125 C-2 58 -2 58 -4 61 C-4.66 61 -5.32 61 -6 61 C-6.26296875 61.59554687 -6.5259375 62.19109375 -6.796875 62.8046875 C-8.05554053 65.10134343 -9.31081747 66.38672377 -11.25 68.125 C-16.79401444 73.50697644 -21.1979218 80.43127157 -23 88 C-23 89.32 -23 90.64 -23 92 C-22.26523437 91.52820313 -22.26523437 91.52820313 -21.515625 91.046875 C-13.30481245 86.34689264 -4.54046089 85.10455042 4.64160156 83.45507812 C9.48930454 82.51966215 14.26124617 81.25713653 19 79.875 C19.99 79.58625 20.98 79.2975 22 79 C22 78.34 22 77.68 22 77 C22.92039062 76.35611328 22.92039062 76.35611328 23.859375 75.69921875 C26.47321232 73.62436613 27.11886202 71.92312945 28.25 68.8125 C28.58515625 67.91144531 28.9203125 67.01039062 29.265625 66.08203125 C29.50796875 65.39496094 29.7503125 64.70789063 30 64 C30.66 64 31.32 64 32 64 C33.95488062 69.86464187 33.74522444 75.92113063 31.5 81.6875 C26.85921246 90.71651521 18.25000879 94.78735025 9.52294922 99.18530273 C3.37416513 102.39264858 -1.74023199 106.22069598 -4 113 C-3.41734375 112.56429687 -2.8346875 112.12859375 -2.234375 111.6796875 C8.72071965 103.72174139 19.69397871 97.95518215 33.375 97.3125 C34.15738037 97.27415039 34.93976074 97.23580078 35.74584961 97.19628906 C46.7147453 96.75105307 57.305671 97.37643475 68.0625 99.5625 C75.18390656 100.96766231 82.18428973 101.36130264 89.4375 101.4375 C90.43209229 101.45949463 91.42668457 101.48148926 92.45141602 101.50415039 C98.56619001 101.48727711 103.25987991 100.50519538 108.82836914 97.95727539 C110.87963216 97.05305928 112.81428388 96.47456114 115 96 C115 95.34 115 94.68 115 94 C116.609375 92.34375 116.609375 92.34375 118.75 90.5 C119.79414062 89.58734375 119.79414062 89.58734375 120.859375 88.65625 C122.84460792 87.12023037 124.71872045 86.0276034 127 85 C127.94970406 93.07248448 124.62496322 98.92269085 121 106 C120.34 106 119.68 106 119 106 C118.690625 106.8353125 118.690625 106.8353125 118.375 107.6875 C114.91475068 113.50701022 108.96505018 116.31697534 103 119 C102.195625 119.37125 101.39125 119.7425 100.5625 120.125 C92.91607238 122.73597529 85.14351273 123.47961191 77.125 124.0625 C74.07840973 124.29730091 71.03192111 124.53327103 67.9855957 124.77148438 C66.00308668 124.92322437 64.01980764 125.06523313 62.03588867 125.19726562 C56.66714482 125.59688531 52.09758664 126.32113277 47.0625 128.375 C46.00160156 128.79523438 44.94070313 129.21546875 43.84765625 129.6484375 C41.26019259 130.87650667 39.20229623 132.18509564 37 134 C37.53625 134.10054687 38.0725 134.20109375 38.625 134.3046875 C49.57500045 136.9341284 58.80414741 144.0250678 67.875 150.4375 C74.50744779 154.87594415 81.11581966 156.66914523 89.015625 155.39453125 C89.67046875 155.26433594 90.3253125 155.13414062 91 155 C92.010625 154.814375 93.02125 154.62875 94.0625 154.4375 C94.701875 154.293125 95.34125 154.14875 96 154 C95.67 155.32 95.34 156.64 95 158 C94.34 158 93.68 158 93 158 C93 158.66 93 159.32 93 160 C86.35414028 165.18701247 79.33715275 166.96285052 71 166 C64.27163513 164.71398259 57.49854246 163.16618082 51 161 C44.34058442 160.58135253 38.29303249 160.71162455 32 163 C32 163.66 32 164.32 32 165 C32.90621094 164.96519531 33.81242187 164.93039063 34.74609375 164.89453125 C42.23177111 164.72818286 48.17639474 164.92529164 55 168 C55.62841797 168.27408691 56.25683594 168.54817383 56.90429688 168.83056641 C65.22352862 172.47639199 73.03090873 176.0688585 80 182 C79.67 182.66 79.34 183.32 79 184 C76.61986261 184.45129878 74.27329718 184.80297003 71.875 185.125 C55.83762495 187.64063273 40.52871636 193.68027397 26.27734375 201.3359375 C23.22363923 202.88644778 20.27350294 204.01346487 17 205 C17 205.66 17 206.32 17 207 C14.35261084 208.4606285 13.10551666 209 10 209 C10.31049726 207.56206608 10.6234776 206.1246682 10.9375 204.6875 C11.11152344 203.88699219 11.28554688 203.08648437 11.46484375 202.26171875 C12 200 12 200 13 197 C14.57484967 178.7935417 12.35934264 163.81752961 1 149 C-9.21076897 136.95206616 -22.69475943 129.30617391 -38.45458984 127.7590332 C-54.96167199 126.89662634 -67.91085065 129.39194314 -81.51171875 139.23046875 C-83.63079042 140.73743808 -85.64224352 141.9232728 -88 143 C-88 143.66 -88 144.32 -88 145 C-88.66 145 -89.32 145 -90 145 C-90.26039063 145.56332031 -90.52078125 146.12664062 -90.7890625 146.70703125 C-92.11900184 149.22533574 -93.68500996 151.39605062 -95.375 153.6875 C-104.0243258 165.95120103 -105.99429624 178.23177638 -105 193 C-104.40939562 195.9458194 -103.65113795 198.72363355 -102.734375 201.58203125 C-101.68478244 205.03787059 -101.33854703 208.41140143 -101 212 C-104.3 210.35 -107.6 208.7 -111 207 C-111 206.34 -111 205.68 -111 205 C-111.51304687 204.90976563 -112.02609375 204.81953125 -112.5546875 204.7265625 C-115.96655588 203.71281247 -118.98535728 202.01931941 -122.125 200.375 C-135.3549748 193.65301326 -148.54211873 188.70744327 -163.09643555 185.68481445 C-171.21798894 183.95297264 -171.21798894 183.95297264 -174 181 C-174 180.34 -174 179.68 -174 179 C-174.66 179 -175.32 179 -176 179 C-176 178.34 -176 177.68 -176 177 C-176.66 177 -177.32 177 -178 177 C-179.77792461 174.95287216 -181.42930397 172.90757439 -183.0625 170.75 C-183.75182617 169.87021484 -183.75182617 169.87021484 -184.45507812 168.97265625 C-186.72073806 166.01166163 -188.2663923 163.64772929 -189 160 C-189.66 160 -190.32 160 -191 160 C-191.66 158.35 -192.32 156.7 -193 155 C-193.66 155 -194.32 155 -195 155 C-200 149.52380952 -200 149.52380952 -200 147 C-200.66 147 -201.32 147 -202 147 C-202 146.34 -202 145.68 -202 145 C-202.70125 144.731875 -203.4025 144.46375 -204.125 144.1875 C-207 143 -207 143 -210 141.4375 C-218.62048463 137.30685111 -229.79143537 138.24598769 -239 140 C-239 139.01 -239 138.02 -239 137 C-228.82954539 127.67347673 -218.03022387 125.03701522 -204.6328125 125.5546875 C-198.40620167 126.00647645 -193.3987675 127.91162208 -188 131 C-187.10410156 131.49628906 -186.20820313 131.99257812 -185.28515625 132.50390625 C-178.0428759 136.81602439 -171.82453115 142.23414192 -165.4765625 147.72802734 C-154.46724462 157.65113621 -154.46724462 157.65113621 -141 162 C-141.32613281 161.48695313 -141.65226562 160.97390625 -141.98828125 160.4453125 C-145.67598718 153.98366847 -146.86267782 147.94662309 -147.90112305 140.69921875 C-148.71216442 135.22569395 -150.02772901 130.30438266 -152.1328125 125.1640625 C-152.95100859 123.12225783 -153.52038895 121.14356775 -154 119 C-154.66 119 -155.32 119 -156 119 C-156 118.34 -156 117.68 -156 117 C-160.58335908 115.07794619 -165.27934033 113.54269924 -170 112 C-169.505 110.515 -169.505 110.515 -169 109 C-163.22676209 107.07558736 -157.11585286 107.39034748 -151.3125 109.0625 C-143.72084977 113.50289919 -139.36825725 118.67245498 -134.84765625 126.1484375 C-130.19457577 133.3297245 -124.79838021 139.34969437 -117 143 C-117.43570313 142.55011719 -117.87140625 142.10023438 -118.3203125 141.63671875 C-123.30953443 136.2479271 -126.84694354 130.62237694 -130 124 C-130.33128906 123.30519531 -130.66257812 122.61039062 -131.00390625 121.89453125 C-137.62908913 105.34757691 -133.66168091 82.9954871 -131 66 C-129.33335288 54.09273223 -129.05737775 42.60362863 -134.75 31.625 C-138.46529089 27.29049397 -142.59427695 23.82377107 -147.4375 20.8125 C-148.7059375 19.9153125 -148.7059375 19.9153125 -150 19 C-150 18.01 -150 17.02 -150 16 C-138.89871737 15.38326208 -129.62214016 18.9647568 -121 26 C-109.38728741 38.8169939 -107.7088006 54.96533724 -106.39819336 71.44042969 C-105.21173099 88.92960561 -105.21173099 88.92960561 -97 104 C-96.61521484 102.80117187 -96.61521484 102.80117187 -96.22265625 101.578125 C-93.53454308 93.86677003 -90.32582474 88.28626215 -85.22265625 81.87109375 C-80.31417445 75.53061199 -75.87001018 69.29818833 -75.75 61.1875 C-75.72421875 60.14980469 -75.6984375 59.11210938 -75.671875 58.04296875 C-76.04061723 54.62332354 -77.12118236 52.83305924 -79 50 C-79 49.34 -79 48.68 -79 48 C-75.62537285 48.54723683 -73.91765 49.0549 -71 51 C-71 51.66 -71 52.32 -71 53 C-70.34 53 -69.68 53 -69 53 C-65.35849941 58.45143455 -64.37411859 62.24391565 -64.5625 68.75 C-64.5728125 69.54422363 -64.583125 70.33844727 -64.59375 71.15673828 C-64.74334834 76.55877833 -65.66225041 81.26555033 -67.31640625 86.41796875 C-69.05214746 92.97411125 -69.03300584 99.63002024 -66 105.75 C-65.34 106.8225 -64.68 107.895 -64 109 C-64.04640625 108.319375 -64.0928125 107.63875 -64.140625 106.9375 C-64.59845157 94.64158646 -61.97780053 82.29511554 -55 72 C-54.34 72 -53.68 72 -53 72 C-52.7421875 71.42121094 -52.484375 70.84242187 -52.21875 70.24609375 C-47.97451829 62.42419237 -39.65374865 57.05878494 -32.625 51.9375 C-31.82771484 51.35299072 -31.03042969 50.76848145 -30.20898438 50.16625977 C-29.45166016 49.62541748 -28.69433594 49.0845752 -27.9140625 48.52734375 C-27.2329541 48.03999756 -26.5518457 47.55265137 -25.85009766 47.05053711 C-24 46 -24 46 -21 46 C-21 45.34 -21 44.68 -21 44 C-19.35 43.34 -17.7 42.68 -16 42 C-16 41.34 -16 40.68 -16 40 C-14.66084559 38.95248366 -13.27669729 37.96222124 -11.875 37 C-5.47897216 32.15513482 -0.83565169 25.40093829 0.83203125 17.42578125 C1.2336589 11.6255308 0.55642235 5.77476164 0 0 Z M-5 113 C-5.33 113.66 -5.66 114.32 -6 115 C-5.34 115 -4.68 115 -4 115 C-4.33 114.34 -4.66 113.68 -5 113 Z " fill="#F4F4F5" transform="translate(297,23)"/>
<path d="M0 0 C0.99 0 1.98 0 3 0 C3.78125 1.3671875 4.5625 2.734375 5.34375 4.1015625 C6.09470947 5.4155603 6.09470947 5.4155603 6.86083984 6.75610352 C7.96054374 8.68083103 9.05982239 10.60580157 10.15869141 12.53100586 C12.55194429 16.72289061 14.94555044 20.91427695 17.3671875 25.08984375 C21.04602602 31.44554306 24.50713304 37.848731 27.67578125 44.4765625 C28.91021915 47.02320719 28.91021915 47.02320719 30.66796875 49.0859375 C32 51 32 51 32 55 C23.42 55 14.84 55 6 55 C7.17829457 47.93023256 7.17829457 47.93023256 10 45 C10.99 44.67 11.98 44.34 13 44 C11.3003494 39.26525903 8.86340973 35.03832889 6.375 30.6875 C5.95476562 29.94693359 5.53453125 29.20636719 5.1015625 28.44335938 C4.07051505 26.62730989 3.03563954 24.81343467 2 23 C-1.07980691 26.78746481 -3.330995 30.9955125 -5.6875 35.25 C-6.31108398 36.36761719 -6.31108398 36.36761719 -6.94726562 37.5078125 C-7.96744233 39.33709487 -8.98407487 41.16835302 -10 43 C-9.030625 43.680625 -8.06125 44.36125 -7.0625 45.0625 C-5.41015625 46.22265625 -5.41015625 46.22265625 -4 48 C-3.67 50.31 -3.34 52.62 -3 55 C-11.58 55 -20.16 55 -29 55 C-28.13133916 50.65669579 -27.5624187 48.90636845 -25.3125 45.375 C-17.47579614 32.72140961 -10.62059895 19.3290985 -4 6 C-3.34 6 -2.68 6 -2 6 C-1.855625 5.38125 -1.71125 4.7625 -1.5625 4.125 C-1 2 -1 2 0 0 Z " fill="#E8E8E8" transform="translate(250,182)"/>
<path d="M0 0 C-0.99 0 -1.98 0 -3 0 C-3.37125 1.670625 -3.37125 1.670625 -3.75 3.375 C-5 7 -5 7 -6.875 8.4375 C-9 9 -9 9 -13 9 C-15.45005536 10.70272478 -17.62349338 12.61526493 -19.87890625 14.56640625 C-20.57886719 15.03949219 -21.27882813 15.51257813 -22 16 C-22.99 15.67 -23.98 15.34 -25 15 C-25.99 15.66 -26.98 16.32 -28 17 C-30 17 -32 17 -34 17 C-33.67 16.34 -33.34 15.68 -33 15 C-33.53109375 15.33773437 -34.0621875 15.67546875 -34.609375 16.0234375 C-35.31578125 16.46945313 -36.0221875 16.91546875 -36.75 17.375 C-37.44609375 17.81585938 -38.1421875 18.25671875 -38.859375 18.7109375 C-44.89712081 22.34680633 -51.05660685 23.91991662 -58 25 C-59.33737094 25.31674575 -60.67288808 25.64270064 -62 26 C-62.33 27.65 -62.66 29.3 -63 31 C-65.475 31.495 -65.475 31.495 -68 32 C-68 31.34 -68 30.68 -68 30 C-69.98 30.33 -71.96 30.66 -74 31 C-71.35941055 28.19737438 -68.82976973 26.11321682 -65.5 24.1875 C-64.61957031 23.67574219 -63.73914063 23.16398437 -62.83203125 22.63671875 C-61.89746094 22.09660156 -60.96289062 21.55648437 -60 21 C-59.05511719 20.42894531 -58.11023438 19.85789063 -57.13671875 19.26953125 C-43.94513436 11.35458062 -15.93844295 -4.98578042 0 0 Z " fill="#B1AFAE" transform="translate(374,215)"/>
<path d="M0 0 C1.43859375 -0.00773437 1.43859375 -0.00773437 2.90625 -0.015625 C5.5 0.25 5.5 0.25 8.5 2.25 C8.5 2.91 8.5 3.57 8.5 4.25 C9.16 4.25 9.82 4.25 10.5 4.25 C12.83486745 7.89823039 12.80399283 10.99410043 12.5 15.25 C11.5 17.6875 11.5 17.6875 10.5 19.25 C9.84 19.25 9.18 19.25 8.5 19.25 C8.5 19.91 8.5 20.57 8.5 21.25 C4.1663906 23.70113654 0.3897839 23.94490863 -4.5 23.25 C-7.68500291 21.62854397 -9.72111096 20.27671736 -11.875 17.4375 C-13.24302563 12.64941029 -13.08540192 9.31987247 -10.6875 4.9375 C-7.31637923 0.79583733 -5.18377505 -0.02786976 0 0 Z " fill="#ECEEEF" transform="translate(120.5,99.75)"/>
<path d="M0 0 C3.39488422 2.05107588 4.80323081 3.70484621 7 7 C7.87328494 11.82604837 7.47456793 15.18433636 5 19.4375 C1.43120181 22.48584845 -1.29385159 23.8747413 -6 24 C-9.9564462 22.87900691 -12.35029941 21.56640565 -15.4375 18.875 C-17.62080389 14.85772085 -17.9356704 11.47391983 -17 7 C-12.95255175 -0.18384727 -7.66785736 -0.89357708 0 0 Z " fill="#EEEFF0" transform="translate(352,70)"/>
<path d="M0 0 C4.29726774 0.0167426 5.36756002 0.07669681 8.875 2.8125 C9.49375 3.658125 10.1125 4.50375 10.75 5.375 C11.08 5.705 11.41 6.035 11.75 6.375 C12.29740745 11.220902 12.49611856 15.14004514 9.9375 19.375 C6.67662314 22.35637312 4.6959265 23.6545678 0.3125 23.625 C-0.44933594 23.63015625 -1.21117187 23.6353125 -1.99609375 23.640625 C-4.46443018 23.3497292 -6.107686 22.60475656 -8.25 21.375 C-8.25 20.715 -8.25 20.055 -8.25 19.375 C-8.91 19.375 -9.57 19.375 -10.25 19.375 C-12.30029428 15.51562253 -12.51718461 12.52812541 -11.87109375 8.30859375 C-10.85714991 5.15197614 -8.74909606 3.43675425 -6.25 1.375 C-4.53055699 -0.34444301 -2.34584777 0.08154016 0 0 Z " fill="#F6F6F7" transform="translate(227.25,38.625)"/>
<path d="M0 0 C26.80371194 -1.34267203 51.0207695 6.78731868 74 20 C74.7523291 20.42700195 75.5046582 20.85400391 76.27978516 21.29394531 C78.42389151 22.51581015 80.55821826 23.75250585 82.6875 25 C83.32993652 25.37366699 83.97237305 25.74733398 84.63427734 26.13232422 C86.12586944 27.03043804 87.56932237 28.00772134 89 29 C89 29.66 89 30.32 89 31 C89.66 31.33 90.32 31.66 91 32 C88 33 88 33 85 33 C84.38125 32.360625 83.7625 31.72125 83.125 31.0625 C80.61253601 28.62393201 79.39201945 28.55218921 76 28 C73.62036846 27.08780791 71.32482471 26.04845036 69 25 C69 24.34 69 23.68 69 23 C68.34 23 67.68 23 67 23 C67 22.34 67 21.68 67 21 C63.7 20.67 60.4 20.34 57 20 C57 19.34 57 18.68 57 18 C56.030625 17.731875 55.06125 17.46375 54.0625 17.1875 C53.051875 16.795625 52.04125 16.40375 51 16 C50.505 14.515 50.505 14.515 50 13 C49.46375 13.2475 48.9275 13.495 48.375 13.75 C46 14 46 14 43.1875 12 C39.18720921 9.49001362 37.51012782 10.08127026 33 11 C30.5625 10.5625 30.5625 10.5625 29 10 C29 9.01 29 8.02 29 7 C25.37 7 21.74 7 18 7 C18 6.34 18 5.68 18 5 C16.02 5 14.04 5 12 5 C12 4.01 12 3.02 12 2 C8.04 1.67 4.08 1.34 0 1 C0 0.67 0 0.34 0 0 Z " fill="#B7B8B6" transform="translate(107,213)"/>
<path d="M0 0 C0.7734375 0.495 0.7734375 0.495 1.5625 1 C1.5625 1.66 1.5625 2.32 1.5625 3 C2.2225 3 2.8825 3 3.5625 3 C5.66222674 6.41205596 5.89333127 9.0300247 5.5625 13 C4.36939283 16.47989592 2.66021532 18.07193926 -0.4375 20 C-3.09375 20.3984375 -3.09375 20.3984375 -5.9375 20.375 C-7.34515625 20.38660156 -7.34515625 20.38660156 -8.78125 20.3984375 C-11.88050448 19.93354933 -13.21543608 19.18718847 -15.4375 17 C-17.37279217 13.05368684 -17.62147788 9.73591153 -16.5625 5.5 C-16.19125 4.675 -15.82 3.85 -15.4375 3 C-14.7775 3 -14.1175 3 -13.4375 3 C-13.4375 2.34 -13.4375 1.68 -13.4375 1 C-9.20368858 -1.70963931 -4.62909082 -1.89911418 0 0 Z " fill="#EBEBEB" transform="translate(416.4375,176)"/>
<path d="M0 0 C1.32 0.33 2.64 0.66 4 1 C2.54054054 5.62162162 2.54054054 5.62162162 0.125 7.3125 C-2 8 -2 8 -6 8 C-8.45005536 9.70272478 -10.62349338 11.61526493 -12.87890625 13.56640625 C-13.57886719 14.03949219 -14.27882813 14.51257813 -15 15 C-15.99 14.67 -16.98 14.34 -18 14 C-18.99 14.66 -19.98 15.32 -21 16 C-23 16 -25 16 -27 16 C-26.67 15.34 -26.34 14.68 -26 14 C-26.53109375 14.33773437 -27.0621875 14.67546875 -27.609375 15.0234375 C-28.31578125 15.46945313 -29.0221875 15.91546875 -29.75 16.375 C-30.44609375 16.81585938 -31.1421875 17.25671875 -31.859375 17.7109375 C-36.21413151 20.33332737 -38.82087138 21.23541494 -44 21 C-44 20.34 -44 19.68 -44 19 C-43.44570313 18.82984375 -42.89140625 18.6596875 -42.3203125 18.484375 C-41.23363281 18.12085938 -41.23363281 18.12085938 -40.125 17.75 C-39.40570313 17.51796875 -38.68640625 17.2859375 -37.9453125 17.046875 C-35.8247777 16.1665304 -35.8247777 16.1665304 -35.14453125 13.99609375 C-34 12 -34 12 -31.06640625 10.98828125 C-29.91011719 10.76527344 -28.75382812 10.54226562 -27.5625 10.3125 C-26.40878906 10.08175781 -25.25507813 9.85101563 -24.06640625 9.61328125 C-23.05449219 9.41089844 -22.04257812 9.20851562 -21 9 C-20.01 8.67 -19.02 8.34 -18 8 C-18 7.34 -18 6.68 -18 6 C-17.01 5.67 -16.02 5.34 -15 5 C-14.34 5.33 -13.68 5.66 -13 6 C-12.67 5.34 -12.34 4.68 -12 4 C-10.1875 3.4375 -10.1875 3.4375 -8 3 C-6.88625 2.7215625 -6.88625 2.7215625 -5.75 2.4375 C-5.1725 2.293125 -4.595 2.14875 -4 2 C-4 2.66 -4 3.32 -4 4 C-2.68 3.67 -1.36 3.34 0 3 C0 2.01 0 1.02 0 0 Z " fill="#B5B4B3" transform="translate(367,216)"/>
<path d="M0 0 C2.33963702 0.30517005 4.66754295 0.64613535 7 1 C8.07991211 1.13365967 8.07991211 1.13365967 9.18164062 1.27001953 C16.63460073 2.4207987 22.25943402 5.58207488 28.625 9.5 C29.62917969 10.09425781 30.63335937 10.68851563 31.66796875 11.30078125 C37.04898 14.54403021 37.04898 14.54403021 39 16 C39 16.66 39 17.32 39 18 C39.66 18.33 40.32 18.66 41 19 C38 20 38 20 35 20 C34.38125 19.360625 33.7625 18.72125 33.125 18.0625 C30.61253601 15.62393201 29.39201945 15.55218921 26 15 C23.62036846 14.08780791 21.32482471 13.04845036 19 12 C19 11.34 19 10.68 19 10 C18.34 10 17.68 10 17 10 C17 9.34 17 8.68 17 8 C13.7 7.67 10.4 7.34 7 7 C7 6.34 7 5.68 7 5 C5.5459375 4.5978125 5.5459375 4.5978125 4.0625 4.1875 C3.051875 3.795625 2.04125 3.40375 1 3 C0.67 2.01 0.34 1.02 0 0 Z " fill="#C6C5C4" transform="translate(157,226)"/>
<path d="M0 0 C0.66 0 1.32 0 2 0 C2.94970406 8.07248448 -0.37503678 13.92269085 -4 21 C-4.66 21 -5.32 21 -6 21 C-6.33 21.66 -6.66 22.32 -7 23 C-7 22.34 -7 21.68 -7 21 C-7.804375 20.731875 -8.60875 20.46375 -9.4375 20.1875 C-10.283125 19.795625 -11.12875 19.40375 -12 19 C-13 16 -13 16 -12 13 C-12.66 12.67 -13.32 12.34 -14 12 C-12.68 11.67 -11.36 11.34 -10 11 C-10 10.34 -10 9.68 -10 9 C-8.3203125 7.34375 -8.3203125 7.34375 -6.125 5.5 C-4.00964496 3.71066742 -1.95980876 1.95980876 0 0 Z " fill="#E5E7E7" transform="translate(422,108)"/>
<path d="M0 0 C-0.969375 0.268125 -1.93875 0.53625 -2.9375 0.8125 C-3.948125 1.204375 -4.95875 1.59625 -6 2 C-6.33 2.99 -6.66 3.98 -7 5 C-8.32 5 -9.64 5 -11 5 C-11 4.34 -11 3.68 -11 3 C-12.97536745 3.34786708 -12.97536745 3.34786708 -15 4 C-15.33 4.66 -15.66 5.32 -16 6 C-16.99 6 -17.98 6 -19 6 C-20.33568021 6.32380126 -21.66923011 6.65657551 -23 7 C-23.66 7 -24.32 7 -25 7 C-25 7.66 -25 8.32 -25 9 C-29.67522787 11.18840453 -33.99992872 12.55420399 -39.08203125 13.47265625 C-41.22011378 13.89055153 -41.22011378 13.89055153 -43 16 C-46.125 16.125 -46.125 16.125 -49 16 C-46.17943082 10.35886164 -35.33243824 8.06639978 -29.55859375 6.12109375 C-5.49318499 -1.71834942 -5.49318499 -1.71834942 0 0 Z " fill="#A19F9D" transform="translate(374,215)"/>
<path d="M0 0 C1.32 0.33 2.64 0.66 4 1 C2.54054054 5.62162162 2.54054054 5.62162162 0.125 7.3125 C-2 8 -2 8 -6 8 C-8.45005536 9.70272478 -10.62349338 11.61526493 -12.87890625 13.56640625 C-13.57886719 14.03949219 -14.27882813 14.51257813 -15 15 C-15.99 14.67 -16.98 14.34 -18 14 C-18.99 14.66 -19.98 15.32 -21 16 C-23 16 -25 16 -27 16 C-26.67 15.34 -26.34 14.68 -26 14 C-26.66 13.67 -27.32 13.34 -28 13 C-27.44014404 12.79842285 -26.88028809 12.5968457 -26.3034668 12.38916016 C-23.7632897 11.4719252 -21.22539252 10.54853634 -18.6875 9.625 C-17.36588867 9.14933594 -17.36588867 9.14933594 -16.01757812 8.6640625 C-15.17001953 8.3546875 -14.32246094 8.0453125 -13.44921875 7.7265625 C-12.27879028 7.30238037 -12.27879028 7.30238037 -11.0847168 6.86962891 C-8.75863693 5.97747757 -8.75863693 5.97747757 -6 4 C-4.0103005 3.60986284 -2.00980131 3.26797351 0 3 C0 2.01 0 1.02 0 0 Z " fill="#C9C8C7" transform="translate(367,216)"/>
<path d="M0 0 C11.27126877 1.74003458 21.97809935 5.58817365 32 11 C26.33307805 12.88897398 20.43198579 12.50149378 15 10.125 C12.80640691 8.89110389 10.88052719 7.67904214 9 6 C9 5.01 9 4.02 9 3 C7.88625 3.309375 7.88625 3.309375 6.75 3.625 C3.67669159 4.04408751 2.57213134 3.61949011 0 2 C0 1.34 0 0.68 0 0 Z " fill="#C1C1C1" transform="translate(138,216)"/>
<path d="M0 0 C1.32 0.66 2.64 1.32 4 2 C4 2.66 4 3.32 4 4 C4.556875 4.226875 5.11375 4.45375 5.6875 4.6875 C8.63246684 6.35896766 10.68156544 8.55276352 13 11 C5.25 11.125 5.25 11.125 3 10 C3.33 8.68 3.66 7.36 4 6 C2.68 5.67 1.36 5.34 0 5 C-0.99 6.485 -0.99 6.485 -2 8 C-2.66 7.67 -3.32 7.34 -4 7 C-4.33 7.66 -4.66 8.32 -5 9 C-6.32 8.67 -7.64 8.34 -9 8 C-6.03 5.36 -3.06 2.72 0 0 Z " fill="#C4C9C0" transform="translate(207,330)"/>
<path d="M0 0 C0.48736475 6.70126536 -0.92291196 11.06561592 -4 17 C-6.9765625 14.3359375 -6.9765625 14.3359375 -7.1875 11.3125 C-7.125625 10.549375 -7.06375 9.78625 -7 9 C-6.01 8.67 -5.02 8.34 -4 8 C-4.99 8 -5.98 8 -7 8 C-7.66 7.67 -8.32 7.34 -9 7 C-7.88121617 5.82737096 -6.75476949 4.66204862 -5.625 3.5 C-4.68527344 2.52546875 -4.68527344 2.52546875 -3.7265625 1.53125 C-2 0 -2 0 0 0 Z " fill="#DDE0E0" transform="translate(424,108)"/>
<path d="M0 0 C2.33425788 0.3267961 4.66742506 0.66140041 7 1 C8.0725 1.12375 9.145 1.2475 10.25 1.375 C13.26031438 2.05916236 14.10288581 2.65119196 16 5 C17.96303844 7.04483171 19.59336812 8.39557874 22 10 C21.67 10.66 21.34 11.32 21 12 C20.34 12 19.68 12 19 12 C19 11.34 19 10.68 19 10 C18.34 10 17.68 10 17 10 C17 9.34 17 8.68 17 8 C13.7 7.67 10.4 7.34 7 7 C7 6.34 7 5.68 7 5 C5.5459375 4.5978125 5.5459375 4.5978125 4.0625 4.1875 C3.051875 3.795625 2.04125 3.40375 1 3 C0.67 2.01 0.34 1.02 0 0 Z " fill="#CFCECE" transform="translate(157,226)"/>
<path d="M0 0 C2.60423592 -0.02697137 5.20819244 -0.04682489 7.8125 -0.0625 C8.55048828 -0.07087891 9.28847656 -0.07925781 10.04882812 -0.08789062 C13.29922068 -0.10259828 15.89404895 -0.03531702 19 1 C19.99 1 20.98 1 22 1 C22 2.32 22 3.64 22 5 C14.57142857 6.28571429 14.57142857 6.28571429 11 5 C11 4.01 11 3.02 11 2 C7.37 2 3.74 2 0 2 C0 1.34 0 0.68 0 0 Z " fill="#C5C4C4" transform="translate(125,218)"/>
<path d="M0 0 C-2.11563101 1.0627128 -4.23386554 2.11039377 -6.375 3.12109375 C-15.75905225 7.82708424 -22.68126818 14.60709184 -30 22 C-28.48667422 14.24420539 -22.16709011 10.47584843 -16.0625 6.1875 C-12.97725546 4.34441735 -12.97725546 4.34441735 -12 2 C-7.87393702 0.27281084 -4.45297431 -0.2120464 0 0 Z " fill="#828483" transform="translate(96,268)"/>
<path d="M0 0 C3.37462715 0.54723683 5.08235 1.0549 8 3 C8 3.66 8 4.32 8 5 C8.66 5 9.32 5 10 5 C10.66 6.32 11.32 7.64 12 9 C9.61435923 8.42415568 7.33317216 7.77772405 5 7 C5 10.63 5 14.26 5 18 C4.67 18 4.34 18 4 18 C3.96261719 17.26394531 3.92523438 16.52789062 3.88671875 15.76953125 C3.41024006 8.42439383 3.41024006 8.42439383 0 2 C0 1.34 0 0.68 0 0 Z " fill="#D2D4D6" transform="translate(218,71)"/>
<path d="M0 0 C0.66 0 1.32 0 2 0 C0.125 4.75 0.125 4.75 -1 7 C-2.32 6.34 -3.64 5.68 -5 5 C-5.061875 5.598125 -5.12375 6.19625 -5.1875 6.8125 C-6.31977322 9.8609279 -8.24532024 10.41605914 -11 12 C-11.33 12.99 -11.66 13.98 -12 15 C-14 13 -14 13 -15 10 C-9.375 6 -9.375 6 -6 6 C-6 5.34 -6 4.68 -6 4 C-4.02 3.34 -2.04 2.68 0 2 C0 1.34 0 0.68 0 0 Z " fill="#C2D2C6" transform="translate(179,352)"/>
<path d="M0 0 C0.556875 0.226875 1.11375 0.45375 1.6875 0.6875 C0.6975 2.9975 -0.2925 5.3075 -1.3125 7.6875 C-2.6325 7.6875 -3.9525 7.6875 -5.3125 7.6875 C-5.3125 7.0275 -5.3125 6.3675 -5.3125 5.6875 C-7.2925 6.0175 -9.2725 6.3475 -11.3125 6.6875 C-4.51779801 -0.61051325 -4.51779801 -0.61051325 0 0 Z " fill="#C8C5C3" transform="translate(311.3125,239.3125)"/>
<path d="M0 0 C0.598125 0.165 1.19625 0.33 1.8125 0.5 C4.11344336 1.1114124 4.11344336 1.1114124 7 1 C7.33 1.99 7.66 2.98 8 4 C8.9590625 4.2165625 8.9590625 4.2165625 9.9375 4.4375 C12 5 12 5 13.25 7.0625 C13.4975 7.701875 13.745 8.34125 14 9 C13.34 9.66 12.68 10.32 12 11 C10.18401175 9.54601271 8.37230481 8.08667675 6.5625 6.625 C5.04849609 5.40683594 5.04849609 5.40683594 3.50390625 4.1640625 C1 2 1 2 0 0 Z " fill="#DEDEE0" transform="translate(252,356)"/>
<path d="M0 0 C2.97 0.495 2.97 0.495 6 1 C0.85714286 6.57142857 0.85714286 6.57142857 -3 7 C-4.32 5.35 -5.64 3.7 -7 2 C-5.02 2 -3.04 2 -1 2 C-0.67 1.34 -0.34 0.68 0 0 Z " fill="#CBCCCA" transform="translate(297,307)"/>
<path d="M0 0 C-9.03476331 7.48594675 -9.03476331 7.48594675 -16 7 C-16 6.34 -16 5.68 -16 5 C-15.37351562 4.72285156 -14.74703125 4.44570312 -14.1015625 4.16015625 C-13.28429687 3.79792969 -12.46703125 3.43570313 -11.625 3.0625 C-10.81289063 2.70285156 -10.00078125 2.34320313 -9.1640625 1.97265625 C-5.75342283 0.43971532 -3.78992753 -0.09973494 0 0 Z " fill="#CBCAC9" transform="translate(339,230)"/>
<path d="M0 0 C1.31611677 0.95336021 2.62778961 1.91285774 3.9375 2.875 C4.66839844 3.40867187 5.39929688 3.94234375 6.15234375 4.4921875 C8 6 8 6 9 8 C8.01 8 7.02 8 6 8 C5.67 9.32 5.34 10.64 5 12 C1.35224614 8.11690718 0.41474367 5.28798182 0 0 Z " fill="#D7D8D3" transform="translate(297,323)"/>
<path d="M0 0 C1.1875 1.6875 1.1875 1.6875 2 4 C1.04504326 5.69287785 0.0409066 7.35857037 -1 9 C-1.2500773 11.54190002 -1.2500773 11.54190002 -1 14 C-1 15.32 -1 16.64 -1 18 C-2.32 18.33 -3.64 18.66 -5 19 C-3.9559635 12.31816637 -2.5957524 6.2534035 0 0 Z " fill="#D4D8D5" transform="translate(12,281)"/>
<path d="M0 0 C-0.33 1.32 -0.66 2.64 -1 4 C-1.66 4 -2.32 4 -3 4 C-3 4.66 -3 5.32 -3 6 C-4.65 6.66 -6.3 7.32 -8 8 C-8.33 7.34 -8.66 6.68 -9 6 C-8.67 5.34 -8.34 4.68 -8 4 C-8.99 3.34 -9.98 2.68 -11 2 C-3.375 0 -3.375 0 0 0 Z " fill="#E1DEDA" transform="translate(393,177)"/>
<path d="M0 0 C1.32 0.33 2.64 0.66 4 1 C2.54054054 5.62162162 2.54054054 5.62162162 0.125 7.3125 C-3.23056102 8.39812268 -5.69878354 8.10040549 -9 7 C-7.02579865 4.47740939 -6.03254358 4.0070192 -2.8125 3.3125 C-1.4203125 3.1578125 -1.4203125 3.1578125 0 3 C0 2.01 0 1.02 0 0 Z " fill="#C6C5C4" transform="translate(367,216)"/>
<path d="M0 0 C-0.969375 0.268125 -1.93875 0.53625 -2.9375 0.8125 C-3.948125 1.204375 -4.95875 1.59625 -6 2 C-6.33 2.99 -6.66 3.98 -7 5 C-8.32 5 -9.64 5 -11 5 C-11 4.34 -11 3.68 -11 3 C-12.97536745 3.34786708 -12.97536745 3.34786708 -15 4 C-15.33 4.66 -15.66 5.32 -16 6 C-16 4.68 -16 3.36 -16 2 C-14.08654673 1.46748234 -12.1690705 0.94940517 -10.25 0.4375 C-9.18265625 0.14746094 -8.1153125 -0.14257812 -7.015625 -0.44140625 C-4.15664073 -0.97098494 -2.68402617 -0.98370862 0 0 Z " fill="#979B98" transform="translate(374,215)"/>
<path d="M0 0 C0.99 0 1.98 0 3 0 C6 4.22222222 6 4.22222222 6 7 C4.35 7.66 2.7 8.32 1 9 C0.67 8.01 0.34 7.02 0 6 C-0.66 5.67 -1.32 5.34 -2 5 C-1.34 3.35 -0.68 1.7 0 0 Z " fill="#D4D9DC" transform="translate(250,182)"/>
<path d="M0 0 C0.48210937 0.42152344 0.96421875 0.84304688 1.4609375 1.27734375 C2.09257813 1.82519531 2.72421875 2.37304688 3.375 2.9375 C4.00148438 3.48277344 4.62796875 4.02804687 5.2734375 4.58984375 C6.95632334 6.06958624 6.95632334 6.06958624 9 7 C9 7.66 9 8.32 9 9 C9.66 9.33 10.32 9.66 11 10 C10.01 10.33 9.02 10.66 8 11 C8 10.01 8 9.02 8 8 C6.35 7.67 4.7 7.34 3 7 C3 6.34 3 5.68 3 5 C1.68 5.33 0.36 5.66 -1 6 C-1.042721 4.33388095 -1.04063832 2.66617115 -1 1 C-0.67 0.67 -0.34 0.34 0 0 Z " fill="#E4E4E4" transform="translate(65,360)"/>
<path d="M0 0 C0.99 0.66 1.98 1.32 3 2 C2.2884375 3.175625 2.2884375 3.175625 1.5625 4.375 C0.66101977 5.88948678 -0.21179485 7.4235897 -1 9 C-2.32 8.34 -3.64 7.68 -5 7 C-5 6.01 -5 5.02 -5 4 C-2.5 1.8125 -2.5 1.8125 0 0 Z " fill="#D2D6D1" transform="translate(262,275)"/>
<path d="M0 0 C0.66 0 1.32 0 2 0 C2.97551509 2.92654527 3.16478088 4.94654996 3.1875 8 C3.20167969 8.86625 3.21585937 9.7325 3.23046875 10.625 C3 13 3 13 1 16 C1 12.7 1 9.4 1 6 C-0.32 7.32 -1.64 8.64 -3 10 C-2.21302675 6.58978257 -1.12880057 3.31114834 0 0 Z " fill="#C8CACD" transform="translate(327,87)"/>
<path d="M0 0 C0.33 0.66 0.66 1.32 1 2 C0.16855469 2.48919922 0.16855469 2.48919922 -0.6796875 2.98828125 C-1.40414062 3.42527344 -2.12859375 3.86226563 -2.875 4.3125 C-3.59429687 4.74175781 -4.31359375 5.17101562 -5.0546875 5.61328125 C-7.26846333 7.01752375 -7.26846333 7.01752375 -9 10 C-10.98 9.34 -12.96 8.68 -15 8 C-14.45859375 7.73445313 -13.9171875 7.46890625 -13.359375 7.1953125 C-10.62474418 5.80988695 -7.93875859 4.34741542 -5.25 2.875 C-4.26515625 2.33617187 -3.2803125 1.79734375 -2.265625 1.2421875 C-1.51796875 0.83226562 -0.7703125 0.42234375 0 0 Z " fill="#BCC0B7" transform="translate(160,364)"/>
<path d="M0 0 C4.75 1.875 4.75 1.875 7 3 C7 3.66 7 4.32 7 5 C7.66 5.33 8.32 5.66 9 6 C6 7 6 7 3 7 C0.3125 4.5 0.3125 4.5 -2 2 C-1.34 1.34 -0.68 0.68 0 0 Z " fill="#C2C3C0" transform="translate(189,239)"/>
<path d="M0 0 C0.66 0.99 1.32 1.98 2 3 C1.34 3 0.68 3 0 3 C0.66 3.66 1.32 4.32 2 5 C2.66 4.67 3.32 4.34 4 4 C6.625 4.9375 6.625 4.9375 9 6 C8.67 6.99 8.34 7.98 8 9 C4.53122824 9 2.17745463 8.38150201 -1 7 C-2 5.0625 -2 5.0625 -2 3 C-1.34 2.01 -0.68 1.02 0 0 Z " fill="#F9F8F8" transform="translate(234,222)"/>
<path d="M0 0 C6.31121503 1.0992895 12.06338584 2.58137942 18 5 C14.8035914 6.06546953 12.34252724 6.07427838 9 6 C9 5.01 9 4.02 9 3 C7.88625 3.309375 7.88625 3.309375 6.75 3.625 C3.67669159 4.04408751 2.57213134 3.61949011 0 2 C0 1.34 0 0.68 0 0 Z " fill="#8A8B8A" transform="translate(138,216)"/>
<path d="M0 0 C0.33 0.66 0.66 1.32 1 2 C0.195625 2.61875 -0.60875 3.2375 -1.4375 3.875 C-4.03874519 5.74164041 -4.03874519 5.74164041 -5 8 C-4.34 8.33 -3.68 8.66 -3 9 C-5.31 9.33 -7.62 9.66 -10 10 C-10 9.01 -10 8.02 -10 7 C-7.8125 5.17578125 -7.8125 5.17578125 -5 3.3125 C-3.6078125 2.37857422 -3.6078125 2.37857422 -2.1875 1.42578125 C-1.1046875 0.72001953 -1.1046875 0.72001953 0 0 Z " fill="#B6BFC0" transform="translate(68,153)"/>
<path d="M0 0 C0.66 1.32 1.32 2.64 2 4 C0.71186658 4.83878455 -0.58063256 5.67086783 -1.875 6.5 C-2.59429687 6.9640625 -3.31359375 7.428125 -4.0546875 7.90625 C-6 9 -6 9 -8 9 C-8 8.34 -8 7.68 -8 7 C-7.01 6.34 -6.02 5.68 -5 5 C-4.505 3.9790625 -4.505 3.9790625 -4 2.9375 C-3 1 -3 1 0 0 Z " fill="#D5D5D7" transform="translate(448,411)"/>
<path d="M0 0 C0 0.99 0 1.98 0 3 C-1.42578125 4.38671875 -1.42578125 4.38671875 -3.3125 5.6875 C-4.23482422 6.34298828 -4.23482422 6.34298828 -5.17578125 7.01171875 C-7 8 -7 8 -10 8 C-10.99 8.495 -10.99 8.495 -12 9 C-10.53403275 5.0570536 -8.62691725 3.98165412 -4.875 2.25 C-3.96492188 1.82203125 -3.05484375 1.3940625 -2.1171875 0.953125 C-1.06917969 0.48132813 -1.06917969 0.48132813 0 0 Z " fill="#D2D1D1" transform="translate(358,223)"/>
<path d="M0 0 C2.08304538 -0.05418326 4.16649768 -0.09287551 6.25 -0.125 C7.99023438 -0.15980469 7.99023438 -0.15980469 9.765625 -0.1953125 C12.82786046 -0.0103949 14.44202751 0.39176977 17 2 C17 2.99 17 3.98 17 5 C15.35 5 13.7 5 12 5 C12 4.01 12 3.02 12 2 C8.04 1.67 4.08 1.34 0 1 C0 0.67 0 0.34 0 0 Z " fill="#C1C2C3" transform="translate(107,213)"/>
<path d="M0 0 C0.125 3.375 0.125 3.375 0 7 C-2 9 -2 9 -5 10 C-4.38675022 3.49955237 -4.38675022 3.49955237 -2.5 1.0625 C-1 0 -1 0 0 0 Z " fill="#F8FAFC" transform="translate(329,92)"/>
<path d="M0 0 C0 0.66 0 1.32 0 2 C1.65 2 3.3 2 5 2 C3.79296875 3.51953125 3.79296875 3.51953125 2 5 C-0.26171875 5.07421875 -0.26171875 5.07421875 -2.6875 4.6875 C-3.49574219 4.56761719 -4.30398438 4.44773438 -5.13671875 4.32421875 C-5.75160156 4.21722656 -6.36648438 4.11023438 -7 4 C-3.375 0 -3.375 0 0 0 Z " fill="#BCBAB8" transform="translate(318,235)"/>
<path d="M0 0 C-5.673142 2.45417612 -10.81839396 4.46246904 -17 5 C-16.67 4.01 -16.34 3.02 -16 2 C-13.1640625 1.015625 -13.1640625 1.015625 -9.625 0.25 C-8.46226562 -0.01296875 -7.29953125 -0.2759375 -6.1015625 -0.546875 C-3 -1 -3 -1 0 0 Z " fill="#BBBBB9" transform="translate(349,226)"/>
<path d="M0 0 C3.7910119 1.44950455 7.3874638 3.15172566 11 5 C10.34 5.66 9.68 6.32 9 7 C5.03982057 6.71713004 2.15450667 4.22249334 -1 2 C-0.67 1.34 -0.34 0.68 0 0 Z " fill="#A29F9F" transform="translate(170,228)"/>
<path d="M0 0 C2.31 0.66 4.62 1.32 7 2 C3.8745041 4.64465038 0.91211733 5.84414715 -3 7 C-1.125 1.125 -1.125 1.125 0 0 Z " fill="#ADB0AF" transform="translate(171,409)"/>
<path d="M0 0 C0.33 0.66 0.66 1.32 1 2 C-0.0625 4.5625 -0.0625 4.5625 -2 7 C-5.1875 7.8125 -5.1875 7.8125 -8 8 C-7.04578192 6.85073734 -6.08647955 5.70569459 -5.125 4.5625 C-4.59132812 3.92441406 -4.05765625 3.28632813 -3.5078125 2.62890625 C-2 1 -2 1 0 0 Z " fill="#CCD4C9" transform="translate(44,237)"/>
<path d="M0 0 C3.96 0 7.92 0 12 0 C12.33 1.32 12.66 2.64 13 4 C12.01 4.495 12.01 4.495 11 5 C11 4.01 11 3.02 11 2 C7.37 2 3.74 2 0 2 C0 1.34 0 0.68 0 0 Z " fill="#CECECC" transform="translate(125,218)"/>
<path d="M0 0 C0.55429688 0.42152344 1.10859375 0.84304688 1.6796875 1.27734375 C2.40414062 1.82519531 3.12859375 2.37304688 3.875 2.9375 C4.59429687 3.48277344 5.31359375 4.02804687 6.0546875 4.58984375 C7.94357079 6.03964624 7.94357079 6.03964624 10 7 C9.67 7.66 9.34 8.32 9 9 C6.17085161 8.26532365 3.53967412 7.46581614 1 6 C0 2.8125 0 2.8125 0 0 Z " fill="#ACB0AF" transform="translate(248,282)"/>
<path d="M0 0 C4.62 0 9.24 0 14 0 C14 0.33 14 0.66 14 1 C11.69 1 9.38 1 7 1 C6.67 1.99 6.34 2.98 6 4 C3.03 3.505 3.03 3.505 0 3 C0 2.01 0 1.02 0 0 Z " fill="#D6D9D9" transform="translate(329,188)"/>
<path d="M0 0 C1.98 0.99 3.96 1.98 6 3 C5.13375 3.1546875 5.13375 3.1546875 4.25 3.3125 C1.67950842 4.09792798 0.06342716 5.30504197 -2 7 C-2.66 6.67 -3.32 6.34 -4 6 C-3.34 4.68 -2.68 3.36 -2 2 C-1.34 2 -0.68 2 0 2 C0 1.34 0 0.68 0 0 Z " fill="#E1E1E1" transform="translate(341,360)"/>
<path d="M0 0 C0 4.09932458 -1.69509742 5.56544863 -4.33203125 8.546875 C-6 10 -6 10 -8.875 10.4375 C-9.57625 10.293125 -10.2775 10.14875 -11 10 C-7.50640535 6.40365256 -3.88901869 3.16548033 0 0 Z " fill="#A6AEA4" transform="translate(196,339)"/>
<path d="M0 0 C0.99386719 0.00902344 1.98773438 0.01804688 3.01171875 0.02734375 C4.15060547 0.04474609 4.15060547 0.04474609 5.3125 0.0625 C5.3125 0.3925 5.3125 0.7225 5.3125 1.0625 C2.0125 1.0625 -1.2875 1.0625 -4.6875 1.0625 C-4.3575 2.3825 -4.0275 3.7025 -3.6875 5.0625 C-6.6575 4.5675 -6.6575 4.5675 -9.6875 4.0625 C-9.3575 3.0725 -9.0275 2.0825 -8.6875 1.0625 C-5.53819107 0.01273036 -3.29935544 -0.03881595 0 0 Z " fill="#AFC0C1" transform="translate(136.6875,130.9375)"/>
<path d="M0 0 C1.65 0 3.3 0 5 0 C3.08864614 3.53600465 1.37357234 5.78972846 -2 8 C-2.33 6.68 -2.66 5.36 -3 4 C-2.34 4 -1.68 4 -1 4 C-0.67 2.68 -0.34 1.36 0 0 Z " fill="#CCCCCE" transform="translate(322,106)"/>
<path d="M0 0 C3.465 1.98 3.465 1.98 7 4 C4.77810176 6.22189824 2.91517292 6.92598892 0 8 C0 5.36 0 2.72 0 0 Z " fill="#CFD3D3" transform="translate(201,247)"/>
<path d="M0 0 C2.97 1.98 2.97 1.98 6 4 C5.67 5.32 5.34 6.64 5 8 C3.02 7.34 1.04 6.68 -1 6 C-0.34 5.67 0.32 5.34 1 5 C0.67 3.35 0.34 1.7 0 0 Z " fill="#CACECC" transform="translate(233,270)"/>
<path d="M0 0 C3.65316671 1.24976756 4.78065836 1.67098753 7 5 C6.01 5.66 5.02 6.32 4 7 C3.01 6.67 2.02 6.34 1 6 C1 5.01 1 4.02 1 3 C0.67 2.01 0.34 1.02 0 0 Z " fill="#D5DAD6" transform="translate(239,276)"/>
<path d="M0 0 C-1 2 -1 2 -3.125 3.125 C-6.52391089 4.15945114 -9.46640886 4.1385722 -13 4 C-8.68630028 1.12420019 -5.19265239 0 0 0 Z " fill="#8D8C8C" transform="translate(358,218)"/>
<path d="M0 0 C0.598125 0.165 1.19625 0.33 1.8125 0.5 C4.11344336 1.1114124 4.11344336 1.1114124 7 1 C7.33 1.99 7.66 2.98 8 4 C7.34 4.66 6.68 5.32 6 6 C3.97945196 4.35830472 1.97956942 2.69088222 0 1 C0 0.67 0 0.34 0 0 Z " fill="#B5B9B6" transform="translate(252,356)"/>
<path d="M0 0 C1.6274637 0.61855631 3.25190356 1.24507305 4.875 1.875 C5.77992188 2.22304687 6.68484375 2.57109375 7.6171875 2.9296875 C10 4 10 4 12 6 C9.03 6 6.06 6 3 6 C3 5.01 3 4.02 3 3 C2.01 2.67 1.02 2.34 0 2 C0 1.34 0 0.68 0 0 Z " fill="#959492" transform="translate(158,222)"/>
<path d="M0 0 C5.75 -0.125 5.75 -0.125 8 1 C8 1.66 8 2.32 8 3 C4.71023192 4.09658936 3.28696233 3.79953138 0 3 C0 2.01 0 1.02 0 0 Z " fill="#A8AAA6" transform="translate(130,215)"/>
<path d="M0 0 C0.33 0.66 0.66 1.32 1 2 C0.34 2.66 -0.32 3.32 -1 4 C-2.03161608 5.98387708 -3.03523618 7.98276656 -4 10 C-5.125 8.25 -5.125 8.25 -6 6 C-5.17133982 3.1825554 -4.41463847 2.24390498 -1.875 0.75 C-1.25625 0.5025 -0.6375 0.255 0 0 Z " fill="#F8F8F6" transform="translate(419,114)"/>
<path d="M0 0 C0.598125 0.20625 1.19625 0.4125 1.8125 0.625 C1.1009375 1.2746875 1.1009375 1.2746875 0.375 1.9375 C-1.42436957 3.64809613 -1.42436957 3.64809613 -2.1875 6.625 C-4.1875 4.625 -4.1875 4.625 -5.1875 1.625 C-2.1875 -0.375 -2.1875 -0.375 0 0 Z " fill="#D7DCD8" transform="translate(169.1875,360.375)"/>
<path d="M0 0 C0.66 0.33 1.32 0.66 2 1 C2 3.64 2 6.28 2 9 C0.35 7.68 -1.3 6.36 -3 5 C-2.01 3.35 -1.02 1.7 0 0 Z " fill="#AAAEAD" transform="translate(53,326)"/>
<path d="M0 0 C3.0916909 2.52956528 3.90931332 5.22454612 5 9 C3.35 8.67 1.7 8.34 0 8 C0 5.36 0 2.72 0 0 Z " fill="#D2C9C7" transform="translate(482,263)"/>
<path d="M0 0 C3.3 1.65 6.6 3.3 10 5 C9.01 5.66 8.02 6.32 7 7 C6.01 6.67 5.02 6.34 4 6 C4 5.01 4 4.02 4 3 C2.68 2.67 1.36 2.34 0 2 C0 1.34 0 0.68 0 0 Z " fill="#C3C8C9" transform="translate(356,193)"/>
<path d="M0 0 C-2.73905345 1.36952673 -4.97087332 1.12621361 -8 1 C-8.66 0.67 -9.32 0.34 -10 0 C-10 -0.66 -10 -1.32 -10 -2 C-5.82412255 -3.39195915 -3.86525224 -1.82323219 0 0 Z " fill="#D1D2CD" transform="translate(220,340)"/>
<path d="M0 0 C1.65 1.32 3.3 2.64 5 4 C3.02 4.99 1.04 5.98 -1 7 C-1.66 6.34 -2.32 5.68 -3 5 C-2.67 4.34 -2.34 3.68 -2 3 C-1.34 3 -0.68 3 0 3 C0 2.01 0 1.02 0 0 Z " fill="#D3D2D0" transform="translate(292,319)"/>
<path d="M0 0 C0.99 0.33 1.98 0.66 3 1 C3 1.99 3 2.98 3 4 C3.66 4.66 4.32 5.32 5 6 C4.01 6.33 3.02 6.66 2 7 C1.34 6.67 0.68 6.34 0 6 C0 5.34 0 4.68 0 4 C-0.99 3.67 -1.98 3.34 -3 3 C-2.01 2.67 -1.02 2.34 0 2 C0 1.34 0 0.68 0 0 Z " fill="#C6C5C5" transform="translate(272,289)"/>
<path d="M0 0 C0.66 1.32 1.32 2.64 2 4 C0.35 5.32 -1.3 6.64 -3 8 C-3.33 7.34 -3.66 6.68 -4 6 C-2.68 4.02 -1.36 2.04 0 0 Z " fill="#C3CDC9" transform="translate(23,260)"/>
<path d="M0 0 C0.33 0.66 0.66 1.32 1 2 C-1.64 3.98 -4.28 5.96 -7 8 C-7.66 7.34 -8.32 6.68 -9 6 C-6.03 4.02 -3.06 2.04 0 0 Z " fill="#CDD1D2" transform="translate(57,228)"/>
<path d="M0 0 C0 2.64 0 5.28 0 8 C-0.99 8 -1.98 8 -3 8 C-2.979375 7.21625 -2.95875 6.4325 -2.9375 5.625 C-2.81315937 3.01885039 -2.81315937 3.01885039 -4 1 C-1 0 -1 0 0 0 Z " fill="#F9FAFC" transform="translate(229,101)"/>
<path d="M0 0 C-1.33333333 0.66666667 -2.66666667 1.33333333 -4 2 C-4.99 2.556875 -4.99 2.556875 -6 3.125 C-8 4 -8 4 -12 4 C-12 3.34 -12 2.68 -12 2 C-7.82262526 0.40861915 -4.46839215 -0.21278058 0 0 Z " fill="#9A9D9E" transform="translate(96,268)"/>
<path d="M0 0 C0.66 0.33 1.32 0.66 2 1 C0.375 3 0.375 3 -2 5 C-5.25 5.25 -5.25 5.25 -8 5 C-6.35197949 1.70395897 -3.32254422 1.22409524 0 0 Z " fill="#7A7A7B" transform="translate(333,226)"/>
<path d="M0 0 C2.31 0 4.62 0 7 0 C6.67 0.99 6.34 1.98 6 3 C5.34 3 4.68 3 4 3 C3.67 3.66 3.34 4.32 3 5 C3 4.34 3 3.68 3 3 C2.01 2.67 1.02 2.34 0 2 C0 1.34 0 0.68 0 0 Z " fill="#CCD0D3" transform="translate(412,126)"/>
<path d="M0 0 C2.31 0 4.62 0 7 0 C6 2 6 2 3.625 3.125 C1 4 1 4 -2 4 C-2 3.34 -2 2.68 -2 2 C-1.34 2 -0.68 2 0 2 C0 1.34 0 0.68 0 0 Z " fill="#B0B3B2" transform="translate(156,418)"/>
<path d="M0 0 C1.65 0 3.3 0 5 0 C2.11912454 2.40072955 -0.56404834 4.47291037 -4 6 C-4 5.01 -4 4.02 -4 3 C-3.01 3 -2.02 3 -1 3 C-0.67 2.01 -0.34 1.02 0 0 Z " fill="#C1BEBD" transform="translate(324,289)"/>
<path d="M0 0 C3.465 1.485 3.465 1.485 7 3 C6.34 3.66 5.68 4.32 5 5 C2.375 4.625 2.375 4.625 0 4 C0 2.68 0 1.36 0 0 Z " fill="#DCD5D4" transform="translate(439,224)"/>
<path d="M0 0 C0 2.31 0 4.62 0 7 C-0.66 6.34 -1.32 5.68 -2 5 C-4.06874034 4.3574765 -4.06874034 4.3574765 -6 4 C-2.25 0 -2.25 0 0 0 Z " fill="#B3CACC" transform="translate(424,108)"/>
<path d="M0 0 C2.64 0.33 5.28 0.66 8 1 C7.01 1.495 7.01 1.495 6 2 C5.67 2.99 5.34 3.98 5 5 C4.01 4.34 3.02 3.68 2 3 C2 2.34 2 1.68 2 1 C1.34 0.67 0.68 0.34 0 0 Z " fill="#C2C4C4" transform="translate(268,370)"/>
<path d="M0 0 C1.32 0.66 2.64 1.32 4 2 C2.02 3.32 0.04 4.64 -2 6 C-2 5.34 -2 4.68 -2 4 C-2.66 3.67 -3.32 3.34 -4 3 C-2.68 2.01 -1.36 1.02 0 0 Z " fill="#B9BCBB" transform="translate(236,368)"/>
<path d="M0 0 C0.99 0.495 0.99 0.495 2 1 C2 1.99 2 2.98 2 4 C2.66 4 3.32 4 4 4 C4.33 5.32 4.66 6.64 5 8 C2.525 7.01 2.525 7.01 0 6 C0 4.02 0 2.04 0 0 Z " fill="#C3C8CC" transform="translate(60,352)"/>
<path d="M0 0 C0.66 0.66 1.32 1.32 2 2 C1.67 2.99 1.34 3.98 1 5 C-0.65 5.33 -2.3 5.66 -4 6 C-3.67 5.01 -3.34 4.02 -3 3 C-2.34 3 -1.68 3 -1 3 C-0.67 2.01 -0.34 1.02 0 0 Z " fill="#FAFCFC" transform="translate(67,155)"/>
<path d="M0 0 C0.99 0.33 1.98 0.66 3 1 C2.01 2.485 2.01 2.485 1 4 C-2.125 4.1875 -2.125 4.1875 -5 4 C-3.36587557 2.29159719 -2.13093906 1.06546953 0 0 Z " fill="#C3C4C5" transform="translate(305,128)"/>
<path d="M0 0 C-2.05233685 2.2477975 -3.00667261 3.0022242 -6 4 C-6 2.68 -6 1.36 -6 0 C-3.50907189 -1.24546405 -2.58919267 -0.7767578 0 0 Z " fill="#C4C6C8" transform="translate(312,118)"/>
<path d="M0 0 C0.66 1.32 1.32 2.64 2 4 C1.01 5.32 0.02 6.64 -1 8 C-1.99 7.67 -2.98 7.34 -4 7 C-2.68 4.69 -1.36 2.38 0 0 Z " fill="#CED0D0" transform="translate(220,92)"/>
<path d="M0 0 C0.33 0 0.66 0 1 0 C1.08131463 1.43655854 1.13933559 2.8744483 1.1875 4.3125 C1.23970703 5.51326172 1.23970703 5.51326172 1.29296875 6.73828125 C0.93801608 9.47851584 0.10633718 10.29171079 -2 12 C-1.33333333 8 -0.66666667 4 0 0 Z " fill="#C5C9CE" transform="translate(358,77)"/>
<path d="M0 0 C-0.66 0 -1.32 0 -2 0 C-2 0.66 -2 1.32 -2 2 C-4.3125 2.625 -4.3125 2.625 -7 3 C-7.99 2.34 -8.98 1.68 -10 1 C-3.375 -1.125 -3.375 -1.125 0 0 Z " fill="#AAADA6" transform="translate(137,376)"/>
<path d="M0 0 C1.1875 1.6875 1.1875 1.6875 2 4 C0.64520503 6.84506944 -0.77431099 8.77431099 -3 11 C-2.69078116 9.54096742 -2.37751201 8.08279278 -2.0625 6.625 C-1.88847656 5.81289063 -1.71445313 5.00078125 -1.53515625 4.1640625 C-1 2 -1 2 0 0 Z " fill="#AFA5A4" transform="translate(12,281)"/>
<path d="M0 0 C0.33 0.99 0.66 1.98 1 3 C-0.28965176 4.37562854 -1.62689293 5.70766393 -3 7 C-3.66 7 -4.32 7 -5 7 C-3.70700306 4.11562221 -2.34058637 2.12780579 0 0 Z " fill="#B3B7B3" transform="translate(35,245)"/>
<path d="M0 0 C0.66 0.66 1.32 1.32 2 2 C1.01 2.99 0.02 3.98 -1 5 C-1 4.34 -1 3.68 -1 3 C-2.98 3.33 -4.96 3.66 -7 4 C-6 2 -6 2 -2.9375 0.875 C-1.4834375 0.441875 -1.4834375 0.441875 0 0 Z " fill="#D9D5D3" transform="translate(307,242)"/>
<path d="M0 0 C0.66 0.33 1.32 0.66 2 1 C0.02 5.455 0.02 5.455 -2 10 C-2.92538169 6.29847322 -3.08174162 5.36541838 -2 2 C-1.34 2 -0.68 2 0 2 C0 1.34 0 0.68 0 0 Z " fill="#B2B5BF" transform="translate(197,179)"/>
<path d="M0 0 C1.98 0 3.96 0 6 0 C4.35 1.65 2.7 3.3 1 5 C0.67 3.35 0.34 1.7 0 0 Z " fill="#B9BCBE" transform="translate(409,131)"/>
<path d="M0 0 C0.66 0.99 1.32 1.98 2 3 C0.35 4.98 -1.3 6.96 -3 9 C-3.66 8.67 -4.32 8.34 -5 8 C-3.35 5.36 -1.7 2.72 0 0 Z " fill="#CACCCE" transform="translate(296,46)"/>
<path d="M0 0 C2.12508244 3.18762365 2.5020163 5.26512223 3 9 C1.68 8.01 0.36 7.02 -1 6 C-0.67 4.02 -0.34 2.04 0 0 Z " fill="#DADCE4" transform="translate(307,33)"/>
</svg>
